<svg xmlns="http://www.w3.org/2000/svg" viewBox="0 0 7410 3900">
  <rect width="7410" height="3900" fill="#b22234"/>
  <g fill="#fff">
    <rect y="300" width="7410" height="300"/>
    <rect y="900" width="7410" height="300"/>
    <rect y="1500" width="7410" height="300"/>
    <rect y="2100" width="7410" height="300"/>
    <rect y="2700" width="7410" height="300"/>
    <rect y="3300" width="7410" height="300"/>
  </g>
  <rect width="2964" height="2100" fill="#3c3b6e"/>
  <g fill="#fff">
    <circle cx="247" cy="210" r="70"/>
    <circle cx="494" cy="210" r="70"/>
    <circle cx="741" cy="210" r="70"/>
    <circle cx="988" cy="210" r="70"/>
    <circle cx="1235" cy="210" r="70"/>
    <circle cx="1482" cy="210" r="70"/>
    <circle cx="1729" cy="210" r="70"/>
    <circle cx="1976" cy="210" r="70"/>
    <circle cx="2223" cy="210" r="70"/>
    <circle cx="2470" cy="210" r="70"/>
    <circle cx="370" cy="420" r="70"/>
    <circle cx="617" cy="420" r="70"/>
    <circle cx="864" cy="420" r="70"/>
    <circle cx="1111" cy="420" r="70"/>
    <circle cx="1358" cy="420" r="70"/>
    <circle cx="1605" cy="420" r="70"/>
    <circle cx="1852" cy="420" r="70"/>
    <circle cx="2099" cy="420" r="70"/>
    <circle cx="2346" cy="420" r="70"/>
  </g>
</svg>
